<svg width="247" height="264" viewBox="0 0 247 264" fill="none" xmlns="http://www.w3.org/2000/svg">
<g clip-path="url(#clip0)">
<path d="M235.904 117.051H235.422V32.4885C235.414 23.8742 232.209 15.615 226.51 9.52398C220.811 3.43292 213.083 0.00764503 205.024 0L186.215 0C178.157 0.00928106 170.431 3.43471 164.734 9.5247C159.036 15.6147 155.831 23.8718 155.822 32.4844V49.8754H151.683C151.178 49.8759 150.679 49.9973 150.223 50.2307C149.767 50.4641 149.366 50.8036 149.049 51.2243L146.656 54.4211C141.402 61.4419 138.235 69.9828 137.562 78.9443C134.797 79.2015 132.222 80.556 130.345 82.7411C128.467 84.9262 127.424 87.7834 127.419 90.75V98.0616C127.419 98.5356 127.506 99.0051 127.676 99.4431C127.845 99.8812 128.094 100.279 128.408 100.614C128.721 100.95 129.094 101.215 129.504 101.397C129.913 101.578 130.353 101.671 130.796 101.671H203.028C203.472 101.671 203.911 101.578 204.321 101.397C204.731 101.215 205.103 100.95 205.417 100.614C205.73 100.279 205.979 99.8812 206.149 99.4431C206.318 99.0051 206.405 98.5356 206.405 98.0616V90.75C206.401 87.7834 205.358 84.926 203.481 82.7405C201.604 80.555 199.03 79.1999 196.265 78.9422C195.594 69.9831 192.43 61.4436 187.18 54.4232L184.785 51.2304C184.469 50.8088 184.068 50.4686 183.612 50.2348C183.156 50.0009 182.657 49.8795 182.151 49.8795H178.008V32.4885C178.009 30.1626 178.874 27.9323 180.413 26.2878C181.952 24.6434 184.039 23.7193 186.215 23.7188H205.029C207.204 23.7209 209.289 24.6452 210.826 26.2886C212.364 27.932 213.228 30.1603 213.23 32.4844V117.047H110.534C110.534 117.004 110.534 116.958 110.534 116.917C110.537 113.156 109.476 109.481 107.492 106.375C105.509 103.268 102.694 100.874 99.4158 99.5059C96.1379 98.1376 92.55 97.8586 89.1214 98.7056C85.6928 99.5527 82.5833 101.486 80.1997 104.253C77.4086 102.345 74.1283 101.419 70.8195 101.605C69.1739 96.6394 66.1295 92.3407 62.105 89.2997C58.0805 86.2588 53.2734 84.625 48.3448 84.6229C43.4162 84.6209 38.608 86.2507 34.5812 89.2884C30.5545 92.326 27.5071 96.6222 25.8578 101.586C21.9591 101.706 18.2369 103.35 15.3961 106.207C12.5553 109.063 10.7932 112.934 10.4435 117.086C7.62185 117.265 4.97026 118.587 3.02958 120.784C1.08891 122.98 0.00537752 125.885 0 128.906L0 135.094C0.00306493 138.238 1.17306 141.253 3.25324 143.476C5.33343 145.699 8.15388 146.95 11.0957 146.953H11.5781V188.203C11.5854 198.081 14.1676 207.762 19.0349 216.159C23.9022 224.556 30.8621 231.338 39.1341 235.744L35.6105 244.631C34.2622 248.035 34.2343 251.872 35.5329 255.298C36.8315 258.724 39.3503 261.459 42.5351 262.9C45.72 264.341 49.31 264.371 52.5154 262.983C55.7208 261.595 58.279 258.902 59.6273 255.498L65.2427 241.312H181.757L187.377 255.496C188.752 258.857 191.312 261.503 194.501 262.86C197.691 264.217 201.252 264.175 204.412 262.743C207.572 261.312 210.077 258.607 211.384 255.214C212.69 251.821 212.692 248.015 211.39 244.621L207.866 235.744C216.137 231.338 223.097 224.557 227.964 216.161C232.831 207.764 235.414 198.085 235.422 188.207V146.957H235.904C238.847 146.954 241.668 145.703 243.748 143.479C245.828 141.254 246.998 138.239 247 135.094V128.906C246.996 125.763 245.825 122.749 243.745 120.527C241.665 118.304 238.845 117.054 235.904 117.051V117.051ZM199.651 90.75V94.4625H134.173V90.75C134.175 89.5197 134.633 88.3403 135.446 87.4704C136.26 86.6005 137.364 86.111 138.515 86.1094H195.309C196.461 86.111 197.564 86.6005 198.378 87.4704C199.192 88.3403 199.65 89.5197 199.651 90.75V90.75ZM181.898 58.938C186.188 64.6608 188.828 71.5941 189.495 78.8927H144.341C145.005 71.596 147.642 64.6635 151.928 58.9401L153.312 57.0983H180.52L181.898 58.938ZM205.024 16.5H186.215C182.25 16.5049 178.449 18.1906 175.645 21.1871C172.841 24.1837 171.264 28.2466 171.26 32.4844V49.8754H162.576V32.4885C162.582 25.7891 165.074 19.3658 169.506 14.6282C173.938 9.8906 179.947 7.22585 186.215 7.21875H205.029C211.297 7.22585 217.305 9.89003 221.737 14.6267C226.169 19.3634 228.661 25.7857 228.668 32.4844V117.047H219.984V32.4844C219.98 28.2455 218.402 24.1817 215.597 21.185C212.792 18.1882 208.989 16.5033 205.024 16.5V16.5ZM26.292 108.799C26.7966 108.804 27.3 108.853 27.7971 108.945C28.6494 109.096 29.523 108.891 30.2379 108.373C30.9528 107.854 31.4544 107.063 31.6392 106.161C32.4833 102.076 34.6128 98.4248 37.6721 95.8159C40.7314 93.207 44.5354 91.7986 48.449 91.8259C52.3627 91.8531 56.1492 93.3144 59.1764 95.9657C62.2036 98.6171 64.2883 102.298 65.0826 106.394C65.1752 106.876 65.3591 107.332 65.6228 107.735C65.8866 108.138 66.2247 108.48 66.6163 108.738C67.008 108.996 67.4449 109.166 67.9003 109.237C68.3556 109.308 68.8198 109.279 69.2642 109.152C70.8662 108.66 72.565 108.658 74.168 109.146C75.771 109.634 77.2141 110.592 78.3337 111.911C78.6945 112.326 79.1415 112.643 79.6385 112.839C80.1355 113.034 80.6685 113.102 81.1945 113.037C81.7205 112.971 82.2247 112.774 82.6664 112.462C83.1081 112.15 83.4748 111.731 83.7369 111.239C84.9083 109.04 86.7276 107.316 88.9112 106.338C91.0947 105.359 93.5199 105.18 95.8086 105.829C98.0972 106.477 100.121 107.917 101.564 109.924C103.007 111.93 103.788 114.39 103.786 116.921V117.051H17.2398C17.5863 114.751 18.6873 112.657 20.3458 111.145C22.0043 109.633 24.1121 108.802 26.292 108.799V108.799ZM53.4041 252.683C52.9232 253.899 52.1174 254.936 51.0876 255.664C50.0578 256.392 48.8499 256.779 47.615 256.777C46.5771 256.778 45.555 256.504 44.6402 255.98C43.7254 255.456 42.9465 254.698 42.373 253.773C41.7995 252.848 41.4494 251.786 41.354 250.681C41.2585 249.576 41.4207 248.464 41.826 247.442L45.3592 238.528C45.5213 238.588 45.6892 238.631 45.8532 238.689C46.4997 238.916 47.1538 239.124 47.8138 239.322C48.0955 239.407 48.3753 239.5 48.6571 239.58C49.5621 239.834 50.4748 240.063 51.3992 240.261C51.6655 240.318 51.9337 240.362 52.2 240.415C52.8927 240.551 53.5874 240.677 54.2898 240.782C54.6314 240.834 54.9729 240.879 55.3164 240.923C55.988 241.009 56.6633 241.078 57.3426 241.129C57.5452 241.148 57.7478 241.178 57.9504 241.193L53.4041 252.683ZM201.637 238.528L205.17 247.442C205.575 248.464 205.738 249.576 205.642 250.681C205.547 251.786 205.197 252.848 204.623 253.773C204.05 254.698 203.271 255.456 202.356 255.98C201.441 256.504 200.419 256.778 199.381 256.777C198.146 256.779 196.939 256.391 195.909 255.663C194.879 254.935 194.073 253.898 193.592 252.683L189.042 241.199C189.244 241.185 189.443 241.154 189.644 241.137C190.331 241.079 191.014 241.007 191.693 240.921C192.025 240.877 192.357 240.834 192.689 240.785C193.407 240.677 194.119 240.549 194.825 240.409C195.08 240.358 195.335 240.318 195.587 240.263C196.511 240.063 197.426 239.836 198.333 239.58C198.619 239.5 198.901 239.407 199.184 239.322C199.84 239.124 200.492 238.913 201.139 238.689C201.307 238.631 201.473 238.588 201.637 238.528V238.528ZM228.668 188.203C228.658 197.33 226.105 206.247 221.335 213.818C216.565 221.388 209.795 227.269 201.886 230.711C200.728 231.219 199.537 231.679 198.339 232.072C198.206 232.116 198.067 232.153 197.932 232.196C196.714 232.582 195.485 232.918 194.24 233.184C194.125 233.211 194.009 233.228 193.893 233.252C192.612 233.516 191.321 233.727 190.016 233.871C189.962 233.871 189.906 233.871 189.852 233.883C188.49 234.022 187.116 234.09 185.732 234.09H61.2676C59.9052 234.09 58.5544 234.013 57.2152 233.883L56.9663 233.863C55.6831 233.727 54.4114 233.518 53.1513 233.258C53.0182 233.232 52.8831 233.211 52.7499 233.182C51.5169 232.916 50.2954 232.584 49.0835 232.2C48.9407 232.155 48.7979 232.116 48.6571 232.07C47.4607 231.676 46.2816 231.219 45.1142 230.711C37.206 227.27 30.4356 221.389 25.6659 213.819C20.8961 206.25 18.3431 197.334 18.332 188.207V146.957H228.668V188.203ZM240.246 135.094C240.245 136.324 239.787 137.503 238.973 138.373C238.159 139.243 237.055 139.733 235.904 139.734H11.0957C9.94466 139.733 8.84119 139.243 8.02728 138.373C7.21337 137.503 6.75544 136.324 6.75391 135.094V128.906C6.75544 127.676 7.21337 126.497 8.02728 125.627C8.84119 124.757 9.94466 124.267 11.0957 124.266H235.904C237.055 124.267 238.159 124.757 238.973 125.627C239.787 126.497 240.245 127.676 240.246 128.906V135.094Z" fill="#012F65"/>
</g>
<defs>
<clipPath id="clip0">
<rect width="247" height="264" fill="white"/>
</clipPath>
</defs>
</svg>
