<svg width="247" height="264" viewBox="0 0 247 264" fill="none" xmlns="http://www.w3.org/2000/svg">
<path d="M239.281 177.375H235.422V144.375C235.417 140.001 233.788 135.807 230.894 132.714C228 129.621 224.077 127.881 219.984 127.875V57.75C219.979 53.3757 218.351 49.1822 215.457 46.0891C212.563 42.996 208.64 41.2557 204.547 41.25H42.4531C38.3605 41.2557 34.437 42.996 31.5431 46.0891C28.6492 49.1822 27.021 53.3757 27.0156 57.75V127.875C22.923 127.881 18.9995 129.621 16.1056 132.714C13.2117 135.807 11.5835 140.001 11.5781 144.375V177.375H7.71875C6.69518 177.375 5.71353 177.81 4.98976 178.583C4.26599 179.357 3.85938 180.406 3.85938 181.5V198C3.85938 199.094 4.26599 200.143 4.98976 200.917C5.71353 201.69 6.69518 202.125 7.71875 202.125H11.5781V218.625C11.5781 219.719 11.9847 220.768 12.7085 221.542C13.4323 222.315 14.4139 222.75 15.4375 222.75H27.0156C27.9076 222.75 28.7721 222.42 29.4618 221.816C30.1515 221.211 30.6237 220.37 30.7978 219.435L34.0397 202.125H212.96L216.202 219.435C216.376 220.37 216.849 221.211 217.538 221.816C218.228 222.42 219.092 222.75 219.984 222.75H231.562C232.586 222.75 233.568 222.315 234.291 221.542C235.015 220.768 235.422 219.719 235.422 218.625V202.125H239.281C240.305 202.125 241.286 201.69 242.01 200.917C242.734 200.143 243.141 199.094 243.141 198V181.5C243.141 180.406 242.734 179.357 242.01 178.583C241.286 177.81 240.305 177.375 239.281 177.375ZM34.7344 57.75C34.7371 55.5628 35.5511 53.4661 36.9981 51.9195C38.4451 50.373 40.4068 49.5029 42.4531 49.5H204.547C206.593 49.5029 208.555 50.373 210.002 51.9195C211.449 53.4661 212.263 55.5628 212.266 57.75V127.875H204.547V111.375C204.542 107.001 202.913 102.807 200.019 99.7141C197.125 96.621 193.202 94.8807 189.109 94.875H142.797C138.704 94.8807 134.781 96.621 131.887 99.7141C128.993 102.807 127.365 107.001 127.359 111.375V127.875H119.641V111.375C119.635 107.001 118.007 102.807 115.113 99.7141C112.219 96.621 108.296 94.8807 104.203 94.875H57.8906C53.798 94.8807 49.8745 96.621 46.9806 99.7141C44.0867 102.807 42.4585 107.001 42.4531 111.375V127.875H34.7344V57.75ZM196.828 111.375V127.875H135.078V111.375C135.081 109.188 135.895 107.091 137.342 105.545C138.789 103.998 140.751 103.128 142.797 103.125H189.109C191.156 103.128 193.117 103.998 194.564 105.545C196.011 107.091 196.825 109.188 196.828 111.375ZM111.922 111.375V127.875H50.1719V111.375C50.1746 109.188 50.9886 107.091 52.4356 105.545C53.8826 103.998 55.8443 103.128 57.8906 103.125H104.203C106.249 103.128 108.211 103.998 109.658 105.545C111.105 107.091 111.919 109.188 111.922 111.375ZM19.2969 144.375C19.2996 142.188 20.1136 140.091 21.5606 138.545C23.0076 136.998 24.9693 136.128 27.0156 136.125H219.984C222.031 136.128 223.992 136.998 225.439 138.545C226.886 140.091 227.7 142.188 227.703 144.375V177.375H19.2969V144.375ZM23.8509 214.5H19.2969V202.125H26.1666L23.8509 214.5ZM227.703 214.5H223.149L220.833 202.125H227.703V214.5ZM235.422 193.875H11.5781V185.625H235.422V193.875Z" fill="#012F65"/>
</svg>
