<svg width="247" height="264" viewBox="0 0 247 264" fill="none" xmlns="http://www.w3.org/2000/svg">
<path d="M238.094 228.319L230.472 197.693C230.3 197.003 229.941 196.383 229.439 195.912C228.938 195.44 228.317 195.138 227.655 195.044C226.993 194.949 226.319 195.067 225.72 195.381C225.12 195.695 224.621 196.193 224.286 196.81L215.459 213.085L193.395 199.266V119.054C193.391 118.86 193.373 118.667 193.341 118.476C193.367 118.33 193.385 118.183 193.395 118.035C193.396 117.405 193.242 116.786 192.949 116.239C192.655 115.693 192.233 115.238 191.724 114.92L126.877 74.316V47.0394H144.466C145.134 47.0387 145.786 46.8264 146.341 46.4293C146.896 46.0323 147.328 45.4683 147.583 44.8088C147.838 44.1492 147.905 43.4236 147.774 42.7237C147.643 42.0239 147.322 41.3811 146.849 40.8767L125.887 18.4676C125.254 17.7913 124.395 17.4114 123.5 17.4114C122.605 17.4114 121.746 17.7913 121.113 18.4676L100.151 40.8767C99.6782 41.3814 99.3562 42.0245 99.2257 42.7248C99.0951 43.425 99.1618 44.1509 99.4174 44.8107C99.6729 45.4704 100.106 46.0343 100.661 46.431C101.217 46.8278 101.87 47.0395 102.538 47.0394H120.123V74.316L55.2759 114.92C54.7672 115.238 54.3453 115.693 54.0521 116.24C53.7589 116.786 53.6047 117.405 53.6048 118.035C53.6147 118.183 53.6334 118.33 53.6607 118.476C53.6273 118.667 53.6086 118.86 53.6048 119.054V199.262L31.5426 213.081L22.7143 196.804C22.3789 196.186 21.8799 195.689 21.2803 195.375C20.6806 195.061 20.0073 194.943 19.3453 195.038C18.6833 195.132 18.0624 195.434 17.5609 195.906C17.0594 196.377 16.6999 196.997 16.5277 197.687L8.90548 228.319C8.67581 229.244 8.79921 230.229 9.24858 231.058C9.69795 231.886 10.4365 232.49 11.3022 232.737L39.958 240.884C40.6034 241.067 41.285 241.041 41.9168 240.81C42.5486 240.579 43.1022 240.153 43.5076 239.586C43.913 239.019 44.152 238.336 44.1945 237.624C44.2369 236.912 44.0808 236.202 43.746 235.585L34.9273 219.322L56.9798 205.514L121.79 246.093C121.829 246.118 121.873 246.126 121.912 246.149C122.097 246.254 122.291 246.341 122.491 246.409C122.558 246.432 122.624 246.458 122.693 246.477C123.218 246.628 123.771 246.628 124.295 246.477C124.364 246.458 124.43 246.432 124.488 246.409C124.688 246.341 124.882 246.254 125.067 246.149C125.105 246.126 125.15 246.118 125.188 246.093L190.018 205.514L212.071 219.332L203.254 235.587C202.956 236.136 202.799 236.758 202.798 237.393C202.797 238.027 202.953 238.65 203.249 239.2C203.545 239.749 203.972 240.206 204.485 240.523C204.999 240.84 205.582 241.007 206.176 241.007C206.469 241.006 206.76 240.965 207.044 240.886L235.7 232.739C236.565 232.492 237.304 231.887 237.753 231.058C238.202 230.23 238.325 229.244 238.094 228.319ZM123.5 26.1236L136.315 39.8207H110.685L123.5 26.1236ZM16.302 226.681L20.9602 207.964L33.8139 231.66L16.302 226.681ZM123.5 80.5674L183.338 118.035L123.5 155.5L63.6642 118.035L123.5 80.5674ZM60.3587 124.332L120.123 161.752V236.682L60.3587 199.262V124.332ZM126.877 236.682V161.752L186.641 124.332V199.262L126.877 236.682ZM213.186 231.66L226.04 207.964L230.7 226.681L213.186 231.66Z" fill="#012F65"/>
</svg>
