<svg width="16" height="16" viewBox="0 0 16 16" fill="none" xmlns="http://www.w3.org/2000/svg">
<path d="M12.7288 2.73625L12.7827 2.79902C14.0531 4.34676 14.0352 6.82661 12.7288 8.34797L7.60499 14.3149L2.4736 8.33915L2.46826 8.33293L2.46272 8.32689C2.40667 8.26579 2.35233 8.20239 2.29983 8.13678C1.01969 6.53631 1.10069 4.01016 2.46775 2.52726C3.79313 1.08957 5.8411 1.16674 7.08576 2.72282L7.0912 2.72963L7.09688 2.73624L7.22313 2.88327L7.60247 3.32502L7.9818 2.88327L8.10805 2.73625C8.10805 2.73625 8.10805 2.73625 8.10805 2.73624C9.39403 1.23869 11.4428 1.23869 12.7288 2.73625Z" stroke="#474747"/>
</svg>
