<svg width="177" height="190" viewBox="0 0 177 190" fill="none" xmlns="http://www.w3.org/2000/svg">
<path d="M88.5001 0C52.4462 0 23.1155 31.485 23.1155 70.1869C23.1155 82.9279 28.4386 96.6308 28.6616 97.2088C30.3809 101.589 33.7732 108.393 36.2193 112.382L81.0501 185.297C82.8847 188.287 85.6001 190 88.5001 190C91.4001 190 94.1155 188.287 95.9501 185.302L140.785 112.382C143.235 108.393 146.623 101.589 148.342 97.2088C148.565 96.6349 153.885 82.932 153.885 70.1869C153.885 31.485 124.554 0 88.5001 0ZM141.25 94.005C139.715 97.9313 136.558 104.261 134.362 107.836L89.527 180.756C88.6424 182.197 88.3616 182.197 87.477 180.756L42.6424 107.836C40.4462 104.261 37.2886 97.9272 35.7539 94.0009C35.6886 93.8316 30.8078 81.2186 30.8078 70.1869C30.8078 36.0389 56.6886 8.25728 88.5001 8.25728C120.312 8.25728 146.192 36.0389 146.192 70.1869C146.192 81.2351 141.3 93.8811 141.25 94.005Z" fill="#474747"/>
<path d="M88.5002 33.0332C69.4117 33.0332 53.8848 49.7047 53.8848 70.191C53.8848 90.6773 69.4117 107.349 88.5002 107.349C107.589 107.349 123.116 90.6773 123.116 70.191C123.116 49.7047 107.589 33.0332 88.5002 33.0332ZM88.5002 99.0915C73.6578 99.0915 61.5771 86.1275 61.5771 70.191C61.5771 54.2545 73.6578 41.2905 88.5002 41.2905C103.342 41.2905 115.423 54.2545 115.423 70.191C115.423 86.1275 103.342 99.0915 88.5002 99.0915Z" fill="#474747"/>
</svg>
