<svg width="247" height="264" viewBox="0 0 247 264" fill="none" xmlns="http://www.w3.org/2000/svg">
<path d="M46.3125 143C32.1307 143 20.5835 155.342 20.5835 170.5C20.5835 185.657 32.1307 198 46.3125 198C60.4943 198 72.0415 185.658 72.0415 170.5C72.0415 155.342 60.4943 143 46.3125 143ZM46.3125 187C37.8011 187 30.875 179.597 30.875 170.5C30.875 161.403 37.8011 154 46.3125 154C54.8239 154 61.75 161.403 61.75 170.5C61.75 179.597 54.8239 187 46.3125 187Z" fill="#012F65"/>
<path d="M200.687 143C186.506 143 174.958 155.342 174.958 170.5C174.958 185.657 186.506 198 200.687 198C214.869 198 226.417 185.658 226.417 170.5C226.417 155.342 214.869 143 200.687 143ZM200.687 187C192.176 187 185.25 179.597 185.25 170.5C185.25 161.403 192.176 154 200.687 154C209.199 154 216.125 161.403 216.125 170.5C216.125 179.597 209.199 187 200.687 187Z" fill="#012F65"/>
<path d="M216.125 110H207.418C204.238 110 201.12 108.834 198.629 106.7L158.08 72.0277C153.531 68.145 147.819 66 142.004 66H67.6163C58.992 66 50.9954 70.5762 46.2097 78.243L37.4514 92.301C34.827 96.492 30.4428 99 25.729 99C11.5473 99 0 111.342 0 126.5V148.5C0 163.658 11.5473 176 25.729 176C28.5695 176 30.875 173.536 30.875 170.5C30.875 167.464 28.5695 165 25.729 165C17.2176 165 10.2915 157.597 10.2915 148.5V126.5C10.2915 117.403 17.2176 110 25.729 110C33.9007 110 41.4753 105.666 46.0139 98.3947L54.7723 84.3475C57.6436 79.7497 62.45 76.9993 67.6163 76.9993H142.004C145.503 76.9993 148.92 78.2863 151.658 80.6185L192.207 115.279C196.499 118.964 201.912 120.999 207.428 120.999H216.125C231.223 120.999 236.708 137.444 236.708 148.499C236.708 159.334 228.949 164.999 221.271 164.999C218.43 164.999 216.125 167.463 216.125 170.499C216.125 173.535 218.43 175.999 221.271 175.999C235.937 176 247 164.175 247 148.5C247 129.833 236.184 110 216.125 110Z" fill="#012F65"/>
<path d="M180.104 165H66.896C64.0555 165 61.75 167.464 61.75 170.5C61.75 173.536 64.0555 176 66.896 176H180.104C182.945 176 185.25 173.536 185.25 170.5C185.25 167.464 182.945 165 180.104 165Z" fill="#012F65"/>
<path d="M169.813 110H123.5V93.4998C123.5 90.4638 121.194 87.9997 118.354 87.9997C115.513 87.9997 113.208 90.4638 113.208 93.4998V115.5C113.208 118.536 115.513 121 118.354 121H169.813C172.653 121 174.958 118.536 174.958 115.5C174.958 112.464 172.653 110 169.813 110Z" fill="#012F65"/>
<path d="M97.771 110H64.9301L71.5065 95.964C72.7724 93.2472 71.7434 89.9472 69.201 88.5828C66.6485 87.2298 63.5716 88.3188 62.2951 91.047L52.0036 113.047C51.2009 114.741 51.2935 116.776 52.2299 118.393C53.1663 120.01 54.8234 121 56.604 121H97.7705C100.611 121 102.917 118.536 102.917 115.5C102.917 112.464 100.611 110 97.771 110Z" fill="#012F65"/>
<path d="M138.938 132H128.646C125.805 132 123.5 134.464 123.5 137.5C123.5 140.536 125.805 143 128.646 143H138.938C141.778 143 144.083 140.536 144.083 137.5C144.083 134.464 141.778 132 138.938 132Z" fill="#012F65"/>
</svg>
